# xmcd
#
# Track frame offsets:
#	150
#	17112
#	33488
#	48939
#	64306
#	83058
#	99831
#	126471
#	147089
#	160296
#	175288
#	199318
#	216695
#
# Disc length: 3164 seconds
#
# Revision: 0
# Processed by: cddbd v1.5.2PL0 Copyright (c) Steve Scherf et al.
# Submitted via: dBpowerAMP V4.0
#
DISCID=bf0c5a0d
DTITLE=Johnny Madsen - Spidsen Af Kuglen
DYEAR=1900
DGENRE=Blues
TTITLE0=01 Jeg Elsker Dig
TTITLE1=02 Månen Over Nuuk
TTITLE2=03 Se Se
TTITLE3=04 Dit Hus
TTITLE4=05 Kabyssen
TTITLE5=06 Park Tøs
TTITLE6=07 Container Klang
TTITLE7=08 Kathmandu
TTITLE8=09 Linedanser
TTITLE9=10 Johnsson City
TTITLE10=11 Solsikke Af Stål
TTITLE11=12 Blind By
TTITLE12=13 Spidsen Af Kuglen
EXTD=
EXTT0=
EXTT1=
EXTT2=
EXTT3=
EXTT4=
EXTT5=
EXTT6=
EXTT7=
EXTT8=
EXTT9=
EXTT10=
EXTT11=
EXTT12=
PLAYORDER=
